<?xml version="1.0" encoding="utf-8"?><svg xmlns="http://www.w3.org/2000/svg" xmlns:xlink="http://www.w3.org/1999/xlink"><symbol fill="none" viewBox="0 0 24 45" id="arrow" xmlns="http://www.w3.org/2000/svg"><g clip-path="url(#aclip0_134_249)"><path fill-rule="evenodd" clip-rule="evenodd" d="M23.5 43.772a1.703 1.703 0 01-1.208.498 1.712 1.712 0 01-1.206-.498L.63 23.435a1.694 1.694 0 01-.37-1.85c.085-.205.211-.392.37-.55L21.086.698a1.712 1.712 0 012.413 0 1.692 1.692 0 010 2.4L4.25 22.235l19.25 19.138a1.692 1.692 0 01.37 1.849 1.692 1.692 0 01-.37.55z" fill="#fff"/></g><defs><clipPath id="aclip0_134_249"><path fill="#fff" transform="rotate(-180 12 22.235)" d="M0 0h24v44.471H0z"/></clipPath></defs></symbol><symbol fill="none" viewBox="0 0 20 20" id="cart" xmlns="http://www.w3.org/2000/svg"><path d="M2.5 3.333h.505c.85 0 1.565.64 1.657 1.486l.676 6.195A1.667 1.667 0 006.995 12.5h7.21c.762 0 1.427-.517 1.615-1.255l1.15-4.51a1.667 1.667 0 00-1.615-2.078H5.5m.02 10.864h.626m-.625.625h.625m8.541-.625h.625m-.625.625h.625m-8.645-.313a.833.833 0 11-1.667 0 .833.833 0 011.667 0zm9.166 0a.833.833 0 11-1.666 0 .833.833 0 011.666 0z" stroke="currentColor" stroke-width="1.5" stroke-linecap="round"/></symbol><symbol fill="none" viewBox="0 0 13 7" id="down_arrow" xmlns="http://www.w3.org/2000/svg"><path fill-rule="evenodd" clip-rule="evenodd" d="M.856.36a.9.9 0 00-.008 1.273L5.532 6.37a1.778 1.778 0 002.532 0l4.684-4.738a.9.9 0 00-1.28-1.266l-4.67 4.724L2.128.367A.9.9 0 00.856.36z" fill="currentColor"/></symbol><symbol fill="none" viewBox="0 0 11 19" id="fb" xmlns="http://www.w3.org/2000/svg"><path d="M9.437 10.463L9.93 7.24h-3.09v-2.09c0-.881.43-1.74 1.815-1.74h1.405V.667S8.787.45 7.568.45c-2.545 0-4.21 1.543-4.21 4.336v2.455H.529v3.222h2.83v7.787H6.84v-7.787h2.597z" fill="currentColor"/></symbol><symbol fill="none" viewBox="0 0 17 20" id="filter" xmlns="http://www.w3.org/2000/svg"><path d="M2.833 13.667v4.583m0-16.5V10m11-8.25V10m-5.5-8.25v4.583m0 3.667v8.25m5.5-4.583v4.583M1 13.667h3.667M6.5 6.333h3.667M12 13.667h3.667" stroke="currentColor" stroke-width="1.8" stroke-linecap="round"/></symbol><symbol fill="none" viewBox="0 0 20 20" id="heart" xmlns="http://www.w3.org/2000/svg"><path clip-rule="evenodd" d="M9.995 4.93c-1.5-1.747-4-2.217-5.879-.617-1.879 1.6-2.143 4.275-.668 6.168 1.227 1.574 4.94 4.892 6.156 5.966.136.12.204.18.284.204.069.02.145.02.214 0 .08-.023.147-.084.284-.204 1.216-1.074 4.929-4.392 6.156-5.966 1.475-1.893 1.243-4.585-.668-6.168-1.911-1.584-4.38-1.13-5.88.617z" stroke="currentColor" stroke-width="1.5" stroke-linecap="round" stroke-linejoin="round"/></symbol><symbol fill="none" viewBox="0 0 17 17" id="inst" xmlns="http://www.w3.org/2000/svg"><path d="M8.466 4.67A3.988 3.988 0 004.47 8.664a3.988 3.988 0 003.995 3.995 3.988 3.988 0 003.994-3.995A3.988 3.988 0 008.466 4.67zm0 6.591a2.602 2.602 0 01-2.597-2.597 2.6 2.6 0 012.597-2.597 2.6 2.6 0 012.597 2.597 2.602 2.602 0 01-2.597 2.597zm5.09-6.755a.93.93 0 01-.932.932.932.932 0 11.932-.932zm2.645.946c-.059-1.248-.344-2.354-1.258-3.265-.911-.91-2.017-1.196-3.265-1.258-1.286-.073-5.142-.073-6.428 0-1.245.059-2.35.344-3.265 1.255C1.071 3.094.79 4.2.727 5.448c-.073 1.287-.073 5.142 0 6.428.059 1.249.344 2.354 1.258 3.265.915.91 2.017 1.196 3.265 1.258 1.286.073 5.142.073 6.428 0 1.248-.059 2.354-.344 3.264-1.258.911-.91 1.197-2.016 1.26-3.264.072-1.287.072-5.139 0-6.425zm-1.662 7.805a2.63 2.63 0 01-1.48 1.48c-1.026.407-3.46.314-4.593.314-1.134 0-3.57.09-4.593-.313a2.63 2.63 0 01-1.48-1.481c-.408-1.026-.314-3.46-.314-4.593s-.09-3.57.313-4.592A2.63 2.63 0 013.873 2.59c1.026-.407 3.46-.313 4.593-.313s3.57-.09 4.592.313a2.63 2.63 0 011.481 1.48c.407 1.026.313 3.46.313 4.593s.094 3.57-.313 4.593z" fill="currentColor"/></symbol><symbol fill="none" viewBox="0 0 13 14" id="lind" xmlns="http://www.w3.org/2000/svg"><path d="M7.52 6.365v7.1H5.117V4.439H7.37l.15 1.927zm-.35 2.27h-.652c0-.668.087-1.268.26-1.802.172-.54.414-.999.725-1.377a3.119 3.119 0 011.11-.876 3.345 3.345 0 011.452-.309c.422 0 .809.061 1.16.184.35.122.65.317.9.584.256.267.451.62.585 1.06.139.439.208.975.208 1.61v5.757h-2.42V7.7c0-.4-.055-.712-.166-.934a.937.937 0 00-.493-.467c-.211-.095-.473-.142-.784-.142-.323 0-.604.064-.843.192a1.675 1.675 0 00-.584.534 2.52 2.52 0 00-.342.784c-.078.3-.117.623-.117.968zM2.84 4.438v9.028H.427V4.438h2.411zM.277 2.085c0-.35.122-.64.367-.868.244-.228.573-.342.984-.342.406 0 .732.114.976.342.25.228.376.517.376.868 0 .35-.125.64-.376.868-.244.228-.57.342-.976.342-.411 0-.74-.114-.984-.342a1.135 1.135 0 01-.367-.868z" fill="currentColor"/></symbol><symbol fill="none" viewBox="0 0 19 19" id="play" xmlns="http://www.w3.org/2000/svg"><path d="M16.085 5.17c3.333 1.924 3.333 6.736 0 8.66l-7.627 4.403c-3.334 1.925-7.5-.48-7.5-4.33V5.097c0-3.85 4.166-6.255 7.5-4.33l7.627 4.403z" fill="currentColor"/></symbol><symbol fill="none" viewBox="0 0 20 20" id="search" xmlns="http://www.w3.org/2000/svg"><path d="M16.636 17.697a.75.75 0 001.061-1.06l-1.06 1.06zm-2.72-8.864a5.083 5.083 0 01-5.083 5.084v1.5a6.583 6.583 0 006.584-6.584h-1.5zm-5.083 5.084A5.083 5.083 0 013.75 8.833h-1.5a6.583 6.583 0 006.583 6.584v-1.5zM3.75 8.833A5.083 5.083 0 018.833 3.75v-1.5A6.583 6.583 0 002.25 8.833h1.5zM8.833 3.75a5.083 5.083 0 015.084 5.083h1.5A6.583 6.583 0 008.833 2.25v1.5zm3.637 9.78l4.166 4.167 1.061-1.06-4.167-4.167-1.06 1.06z" fill="currentColor"/></symbol><symbol fill="none" viewBox="0 0 19 16" id="tw" xmlns="http://www.w3.org/2000/svg"><path d="M16.346 4.189c.012.158.012.316.012.474 0 4.823-3.671 10.38-10.38 10.38a10.31 10.31 0 01-5.602-1.638c.294.034.576.045.88.045a7.306 7.306 0 004.53-1.558 3.654 3.654 0 01-3.41-2.53 4.6 4.6 0 00.688.056c.328 0 .655-.045.96-.124A3.649 3.649 0 011.1 5.714v-.046c.485.271 1.05.44 1.649.463A3.646 3.646 0 011.12 3.093c0-.677.181-1.299.497-1.84A10.37 10.37 0 009.14 5.07a4.118 4.118 0 01-.09-.836A3.646 3.646 0 0112.698.586c1.05 0 2 .44 2.666 1.152a7.183 7.183 0 002.315-.881 3.638 3.638 0 01-1.604 2.01 7.313 7.313 0 002.1-.564 7.843 7.843 0 01-1.829 1.886z" fill="currentColor"/></symbol><symbol fill="none" viewBox="0 0 20 20" id="user" xmlns="http://www.w3.org/2000/svg"><path d="M10 11.667a4.167 4.167 0 100-8.334 4.167 4.167 0 000 8.334zm0 0c-3.682 0-6.667 2.238-6.667 5m6.667-5c3.682 0 6.667 2.238 6.667 5" stroke="currentColor" stroke-width="1.5" stroke-linecap="round"/></symbol></svg>